<svg id="visual" viewBox="0 0 900 600" width="900" height="600" xmlns="http://www.w3.org/2000/svg" xmlns:xlink="http://www.w3.org/1999/xlink" version="1.1"><rect x="0" y="0" width="900" height="600" fill="#fff6f3"></rect><defs><linearGradient id="grad1_0" x1="33.3%" y1="100%" x2="100%" y2="0%"><stop offset="20%" stop-color="#ffbbb8" stop-opacity="1"></stop><stop offset="80%" stop-color="#ffbbb8" stop-opacity="1"></stop></linearGradient></defs><defs><linearGradient id="grad1_1" x1="33.3%" y1="100%" x2="100%" y2="0%"><stop offset="20%" stop-color="#ffbbb8" stop-opacity="1"></stop><stop offset="80%" stop-color="#ffd9d2" stop-opacity="1"></stop></linearGradient></defs><defs><linearGradient id="grad1_2" x1="33.3%" y1="100%" x2="100%" y2="0%"><stop offset="20%" stop-color="#fff6f3" stop-opacity="1"></stop><stop offset="80%" stop-color="#ffd9d2" stop-opacity="1"></stop></linearGradient></defs><defs><linearGradient id="grad2_0" x1="0%" y1="100%" x2="66.7%" y2="0%"><stop offset="20%" stop-color="#ffbbb8" stop-opacity="1"></stop><stop offset="80%" stop-color="#ffbbb8" stop-opacity="1"></stop></linearGradient></defs><defs><linearGradient id="grad2_1" x1="0%" y1="100%" x2="66.7%" y2="0%"><stop offset="20%" stop-color="#ffd9d2" stop-opacity="1"></stop><stop offset="80%" stop-color="#ffbbb8" stop-opacity="1"></stop></linearGradient></defs><defs><linearGradient id="grad2_2" x1="0%" y1="100%" x2="66.7%" y2="0%"><stop offset="20%" stop-color="#ffd9d2" stop-opacity="1"></stop><stop offset="80%" stop-color="#fff6f3" stop-opacity="1"></stop></linearGradient></defs><g transform="translate(900, 600)"><path d="M-486.7 0C-440.2 -47 -393.7 -94 -376.9 -156.1C-360.2 -218.2 -373.4 -295.4 -344.2 -344.2C-315 -393 -243.5 -413.3 -179.1 -432.4C-114.7 -451.4 -57.3 -469.1 0 -486.7L0 0Z" fill="#ffe8e1"></path><path d="M-324.5 0C-293.5 -31.3 -262.4 -62.7 -251.3 -104.1C-240.2 -145.5 -248.9 -196.9 -229.5 -229.5C-210 -262 -162.3 -275.6 -119.4 -288.3C-76.5 -300.9 -38.2 -312.7 0 -324.5L0 0Z" fill="#ffcac4"></path><path d="M-162.2 0C-146.7 -15.7 -131.2 -31.3 -125.6 -52C-120.1 -72.7 -124.5 -98.5 -114.7 -114.7C-105 -131 -81.2 -137.8 -59.7 -144.1C-38.2 -150.5 -19.1 -156.4 0 -162.2L0 0Z" fill="#ffbbb8"></path></g><g transform="translate(0, 0)"><path d="M486.7 0C460.4 54.2 434.1 108.5 415.7 172.2C397.4 235.9 387.1 309.1 344.2 344.2C301.3 379.2 225.8 376.2 163 393.6C100.2 411 50.1 448.9 0 486.7L0 0Z" fill="#ffe8e1"></path><path d="M324.5 0C306.9 36.2 289.4 72.3 277.2 114.8C264.9 157.3 258.1 206.1 229.5 229.5C200.9 252.8 150.5 250.8 108.7 262.4C66.8 274 33.4 299.2 0 324.5L0 0Z" fill="#ffcac4"></path><path d="M162.2 0C153.5 18.1 144.7 36.2 138.6 57.4C132.5 78.6 129 103 114.7 114.7C100.4 126.4 75.3 125.4 54.3 131.2C33.4 137 16.7 149.6 0 162.2L0 0Z" fill="#ffbbb8"></path></g></svg>