<svg width="544" height="188" viewBox="0 0 544 188" fill="none" xmlns="http://www.w3.org/2000/svg">
<path d="M158.81 40.18C157.38 39.12 153.54 38.61 153.54 38.61C143.68 37.9 145.57 47.38 138.76 51.96C131.95 56.54 140.18 60.95 140.18 60.95L151.6 65.98L161.81 53.72L158.81 40.18Z" fill="#BF1F56" stroke="#BF1F56" stroke-miterlimit="10"/>
<path d="M178.531 78.74C178.531 78.74 183.751 75.9401 186.171 71.9601C188.591 67.9801 196.341 68.41 194.001 64.25C191.661 60.09 187.071 54.94 180.321 55.75L173.311 64.7301L178.531 78.74Z" fill="#BF1F56" stroke="#BF1F56" stroke-miterlimit="10"/>
<path d="M159.08 43.16C159.08 43.16 157.89 39.32 161.84 38.65C165.79 37.98 173.04 39.97 177.63 39.84C182.22 39.71 182.85 47.82 181.5 52.26C180.15 56.69 177.13 66.07 177.25 69.27C177.37 72.47 175.13 72.69 175.13 72.69" fill="#E23D61"/>
<path d="M159.08 43.16C159.08 43.16 157.89 39.32 161.84 38.65C165.79 37.98 173.04 39.97 177.63 39.84C182.22 39.71 182.85 47.82 181.5 52.26C180.15 56.69 177.13 66.07 177.25 69.27C177.37 72.47 175.13 72.69 175.13 72.69" stroke="#E23D61" stroke-miterlimit="10"/>
<path d="M162.92 44.76C151.38 39.82 150.55 47.37 151.05 49C151.55 50.63 148.45 51.34 148.45 51.34L160.4 55.6L162.92 44.76Z" fill="#F29D95" stroke="#F29D95" stroke-miterlimit="10"/>
<path d="M90.5603 93.14C87.7103 88.63 84.1003 84.65 79.7503 81.2C75.3903 77.74 70.7403 74.67 65.7803 71.96C60.8303 69.26 56.1703 66.63 51.8203 64.08C48.6703 63.63 45.1403 62.62 41.2303 61.04C37.3303 59.46 33.6103 57.47 30.0803 55.07C26.5503 52.67 23.5903 49.85 21.1903 46.62C18.7803 43.4 17.5803 39.98 17.5803 36.38C17.5803 32.02 18.0303 28.49 18.9403 25.79C19.8403 23.09 21.2203 21.02 23.1003 19.6C24.9803 18.17 27.3803 17.2 30.3103 16.67C33.2403 16.14 36.7303 15.88 40.7803 15.88C42.2803 15.88 44.8703 15.96 48.5503 16.1C52.2303 16.26 56.0203 16.59 59.9303 17.12C63.8303 17.65 67.4003 18.4 70.6303 19.37C73.8503 20.35 75.7003 21.66 76.1503 23.31C76.9003 25.27 77.6403 27.52 78.4003 30.07C78.8503 31.42 79.3003 32.85 79.7503 34.35L81.7803 33.67C82.6803 29.02 83.5003 24.4 84.2503 19.82C85.0003 15.24 85.6103 10.55 86.0603 5.73996L83.3503 5.06998C82.3003 4.16998 80.3903 3.45996 77.6103 2.92996C74.8303 2.39996 71.9003 2.02996 68.8303 1.79996C65.7503 1.57996 62.8603 1.45996 60.1503 1.45996H54.7503C48.8903 1.45996 42.9603 2.39997 36.9503 4.27997C30.9503 6.15997 25.5403 8.89997 20.7403 12.5C15.9303 16.1 11.9903 20.5 8.91034 25.68C5.83034 30.86 4.30032 36.68 4.30032 43.13C4.30032 49.89 6.17033 55.94 9.93033 61.26C13.6803 66.6 18.1803 71.21 23.4403 75.12C23.4403 75.12 31.1403 80.0899 33.7903 80.2899C33.8003 80.2899 33.8003 80.2899 33.8103 80.2899C37.3303 80.3199 41.2803 81.33 45.6303 83.34C50.3603 85.52 54.8603 88.33 59.1403 91.78C63.4203 95.24 67.0203 99.07 69.9503 103.27C72.8803 107.48 74.3403 111.6 74.3403 115.66C74.3403 121.37 72.9903 126.24 70.2903 130.3C67.5903 134.35 64.2103 137.47 60.1503 139.65C56.1003 141.82 51.7403 142.95 47.0903 143.03C42.4303 143.1 38.0803 142.01 34.0303 139.76C29.9703 137.51 26.5903 133.98 23.8903 129.17C21.1903 124.37 19.8403 118.21 19.8403 110.7C19.8403 105.9 20.5103 101.69 21.8603 98.09C22.0103 97.69 22.1703 97.29 22.3303 96.9L0.600339 107.05C0.590339 107.1 0.59032 107.16 0.58032 107.21C0.0503199 111.19 0.200332 115.02 1.03033 118.7C1.85033 122.38 3.51034 126.02 5.98034 129.62C8.46034 133.23 11.8003 136.98 16.0103 140.89C18.5603 143.29 22.0503 145.05 26.4803 146.18C30.9103 147.3 35.3003 148.17 39.6603 148.77C44.7603 149.37 50.0903 149.67 55.6503 149.67C69.1603 146.21 79.0703 140.89 85.3803 133.68C91.6903 126.47 94.8403 118.29 94.8403 109.13C94.8403 102.97 93.4103 97.64 90.5603 93.14ZM57.2303 36.15C55.7203 35.1 54.3303 33.94 53.0603 32.66C51.7803 31.39 50.6903 30.03 49.7903 28.61C48.8903 27.18 48.4403 25.79 48.4403 24.44L48.6703 23.54C47.4603 24.59 46.5303 25.64 45.8503 26.69C45.1803 27.74 44.3903 28.91 43.4903 30.18C42.5903 31.46 41.4903 32.77 40.2203 34.12C38.9403 35.47 37.1003 36.98 34.7003 38.63C35.9003 39.23 37.1803 40.02 38.5303 40.99C39.8803 41.97 41.2003 43.1 42.4703 44.37C43.7503 45.65 44.8003 47 45.6303 48.43C46.4503 49.85 46.8603 51.24 46.8603 52.59L46.6403 53.27L48.4403 53.94C48.2903 52.74 48.5503 51.35 49.2303 49.78C49.9103 48.2 50.8403 46.74 52.0503 45.39C53.2503 44.03 54.5203 42.87 55.8703 41.89C57.2303 40.92 58.5003 40.36 59.7003 40.2L61.0503 38.63C60.0003 38.03 58.7203 37.2 57.2303 36.15Z" fill="#EA667B"/>
<path d="M57.2302 36.15C55.7202 35.1 54.3302 33.94 53.0602 32.66C51.7802 31.39 50.6902 30.03 49.7902 28.61C48.8902 27.18 48.4402 25.79 48.4402 24.44L48.6702 23.54C47.4602 24.59 46.5302 25.64 45.8502 26.69C45.1802 27.74 44.3902 28.91 43.4902 30.18C42.5902 31.46 41.4902 32.77 40.2202 34.12C38.9402 35.47 37.1002 36.98 34.7002 38.63C35.9002 39.23 37.1802 40.02 38.5302 40.99C39.8802 41.97 41.2002 43.1 42.4702 44.37C43.7502 45.65 44.8002 47 45.6302 48.43C46.4502 49.85 46.8602 51.24 46.8602 52.59L46.6402 53.27L48.4402 53.94C48.2902 52.74 48.5502 51.35 49.2302 49.78C49.9102 48.2 50.8402 46.74 52.0502 45.39C53.2502 44.03 54.5202 42.87 55.8702 41.89C57.2302 40.92 58.5002 40.36 59.7002 40.2L61.0502 38.63C60.0002 38.03 58.7202 37.2 57.2302 36.15Z" fill="#6C9341"/>
<path d="M294.96 66.68C292.63 64.05 291.09 61.39 290.34 58.68C290.34 58.83 290.19 59.44 289.89 60.49C289.74 60.94 289.59 61.31 289.44 61.61C289.14 62.96 288.5 64.28 287.52 65.55C286.55 66.83 285.42 67.9999 284.15 69.0399C282.87 70.0999 281.67 71.04 280.54 71.86C279.42 72.69 278.48 73.32 277.73 73.78L279.08 75.3499C281.33 76.0999 283.43 77.4199 285.38 79.2899C287.33 81.1699 288.76 83.39 289.66 85.94C289.96 86.54 290.19 87.14 290.34 87.74C290.45 88.2 290.44 88.5699 290.28 88.8499C290.41 88.7099 290.58 88.64 290.79 88.64H291.02C291.31 85.79 292.78 82.94 295.41 80.08C298.03 77.23 300.85 75.2 303.85 74C300.25 71.75 297.28 69.31 294.96 66.68ZM294.96 66.68C292.63 64.05 291.09 61.39 290.34 58.68C290.34 58.83 290.19 59.44 289.89 60.49C289.74 60.94 289.59 61.31 289.44 61.61C289.14 62.96 288.5 64.28 287.52 65.55C286.55 66.83 285.42 67.9999 284.15 69.0399C282.87 70.0999 281.67 71.04 280.54 71.86C279.42 72.69 278.48 73.32 277.73 73.78L279.08 75.3499C281.33 76.0999 283.43 77.4199 285.38 79.2899C287.33 81.1699 288.76 83.39 289.66 85.94C289.96 86.54 290.19 87.14 290.34 87.74C290.45 88.2 290.44 88.5699 290.28 88.8499C290.41 88.7099 290.58 88.64 290.79 88.64H291.02C291.31 85.79 292.78 82.94 295.41 80.08C298.03 77.23 300.85 75.2 303.85 74C300.25 71.75 297.28 69.31 294.96 66.68ZM348.68 46.86C346.72 39.13 343.42 31.99 338.77 25.46C334.11 18.93 327.95 13.49 320.3 9.12997C312.64 4.77997 303.1 2.59998 291.69 2.59998C284.18 2.59998 277.46 3.87996 271.53 6.42996C265.6 8.97996 260.34 12.36 255.77 16.56C251.18 20.77 247.28 25.54 244.05 30.87C240.82 36.2 238.16 41.6 236.06 47.08C233.95 52.57 232.42 57.93 231.44 63.19C230.46 68.45 229.98 73.03 229.98 76.93C229.98 82.78 230.69 89.24 232.12 96.3C233.54 103.36 236.02 110.15 239.55 116.68C243.08 123.21 247.69 129.04 253.4 134.14C259.11 139.25 266.24 142.7 274.8 144.5C277.2 144.95 279.45 145.32 281.56 145.63C283.36 145.92 285.27 146.15 287.3 146.3C289.33 146.45 290.94 146.45 292.14 146.3C296.2 146.3 300.85 145.06 306.11 142.58C311.36 140.11 316.5 136.84 321.54 132.79C326.56 128.73 331.11 124.12 335.16 118.93C339.22 113.75 342.14 108.54 343.95 103.28C345.6 98.48 346.8 95.1 347.55 93.15C348.3 91.2 348.86 89.4299 349.24 87.8499C349.61 86.2799 349.95 84.17 350.25 81.55C350.55 78.92 351 74.6 351.6 68.59C351.6 61.84 350.63 54.59 348.68 46.86ZM336.85 88.75C336.17 95.44 334.71 101.74 332.46 107.67C330.21 113.61 326.94 118.71 322.66 122.99C318.38 127.27 312.64 129.86 305.43 130.76C291.02 132.56 278.66 130.08 268.38 123.33C258.09 116.57 250.77 104.86 246.42 88.19C245.67 85.34 245.03 82.07 244.5 78.39C243.98 74.71 243.72 71.22 243.72 67.92C243.72 63.72 244.05 59.62 244.73 55.64C245.41 51.67 245.89 47.65 246.19 43.59C246.49 39.24 247.92 35.34 250.47 31.88C253.02 28.43 256.1 25.46 259.71 22.98C263.31 20.51 267.14 18.59 271.2 17.24C275.25 15.89 278.85 15.21 282.01 15.21C286.96 15.21 292.1 16.11 297.43 17.92C302.76 19.72 307.76 22.16 312.41 25.24C317.07 28.32 321.16 31.92 324.69 36.05C328.22 40.18 330.73 44.65 332.23 49.45C333.28 52.91 334.49 56.25 335.84 59.47C337.19 62.7 337.86 66.27 337.86 70.17C337.86 75.88 337.53 82.07 336.85 88.75ZM294.96 66.68C292.63 64.05 291.09 61.39 290.34 58.68C290.34 58.83 290.19 59.44 289.89 60.49C289.74 60.94 289.59 61.31 289.44 61.61C289.14 62.96 288.5 64.28 287.52 65.55C286.55 66.83 285.42 67.9999 284.15 69.0399C282.87 70.0999 281.67 71.04 280.54 71.86C279.42 72.69 278.48 73.32 277.73 73.78L279.08 75.3499C281.33 76.0999 283.43 77.4199 285.38 79.2899C287.33 81.1699 288.76 83.39 289.66 85.94C289.96 86.54 290.19 87.14 290.34 87.74C290.45 88.2 290.44 88.5699 290.28 88.8499C290.41 88.7099 290.58 88.64 290.79 88.64H291.02C291.31 85.79 292.78 82.94 295.41 80.08C298.03 77.23 300.85 75.2 303.85 74C300.25 71.75 297.28 69.31 294.96 66.68Z" fill="#EA667B"/>
<path d="M294.961 66.68C292.631 64.05 291.091 61.39 290.341 58.68C290.341 58.83 290.191 59.44 289.891 60.49C289.741 60.94 289.59 61.31 289.44 61.61C289.14 62.96 288.501 64.28 287.521 65.55C286.551 66.83 285.421 68 284.151 69.04C282.871 70.1 281.67 71.04 280.54 71.86C279.42 72.69 278.48 73.32 277.73 73.78L279.081 75.35C281.331 76.1 283.43 77.42 285.38 79.29C287.33 81.17 288.76 83.39 289.66 85.94C289.96 86.54 290.191 87.14 290.341 87.74C290.451 88.2 290.441 88.57 290.281 88.85C290.411 88.71 290.58 88.64 290.79 88.64H291.021C291.311 85.79 292.78 82.94 295.41 80.08C298.03 77.23 300.85 75.2 303.85 74C300.25 71.75 297.281 69.31 294.961 66.68ZM294.961 66.68C292.631 64.05 291.091 61.39 290.341 58.68C290.341 58.83 290.191 59.44 289.891 60.49C289.741 60.94 289.59 61.31 289.44 61.61C289.14 62.96 288.501 64.28 287.521 65.55C286.551 66.83 285.421 68 284.151 69.04C282.871 70.1 281.67 71.04 280.54 71.86C279.42 72.69 278.48 73.32 277.73 73.78L279.081 75.35C281.331 76.1 283.43 77.42 285.38 79.29C287.33 81.17 288.76 83.39 289.66 85.94C289.96 86.54 290.191 87.14 290.341 87.74C290.451 88.2 290.441 88.57 290.281 88.85C290.411 88.71 290.58 88.64 290.79 88.64H291.021C291.311 85.79 292.78 82.94 295.41 80.08C298.03 77.23 300.85 75.2 303.85 74C300.25 71.75 297.281 69.31 294.961 66.68ZM294.961 66.68C292.631 64.05 291.091 61.39 290.341 58.68C290.341 58.83 290.191 59.44 289.891 60.49C289.741 60.94 289.59 61.31 289.44 61.61C289.14 62.96 288.501 64.28 287.521 65.55C286.551 66.83 285.421 68 284.151 69.04C282.871 70.1 281.67 71.04 280.54 71.86C279.42 72.69 278.48 73.32 277.73 73.78L279.081 75.35C281.331 76.1 283.43 77.42 285.38 79.29C287.33 81.17 288.76 83.39 289.66 85.94C289.96 86.54 290.191 87.14 290.341 87.74C290.451 88.2 290.441 88.57 290.281 88.85C290.411 88.71 290.58 88.64 290.79 88.64H291.021C291.311 85.79 292.78 82.94 295.41 80.08C298.03 77.23 300.85 75.2 303.85 74C300.25 71.75 297.281 69.31 294.961 66.68ZM294.961 66.68C292.631 64.05 291.091 61.39 290.341 58.68C290.341 58.83 290.191 59.44 289.891 60.49C289.741 60.94 289.59 61.31 289.44 61.61C289.14 62.96 288.501 64.28 287.521 65.55C286.551 66.83 285.421 68 284.151 69.04C282.871 70.1 281.67 71.04 280.54 71.86C279.42 72.69 278.48 73.32 277.73 73.78L279.081 75.35C281.331 76.1 283.43 77.42 285.38 79.29C287.33 81.17 288.76 83.39 289.66 85.94C289.96 86.54 290.191 87.14 290.341 87.74C290.451 88.2 290.441 88.57 290.281 88.85C290.411 88.71 290.58 88.64 290.79 88.64H291.021C291.311 85.79 292.78 82.94 295.41 80.08C298.03 77.23 300.85 75.2 303.85 74C300.25 71.75 297.281 69.31 294.961 66.68ZM294.961 66.68C292.631 64.05 291.091 61.39 290.341 58.68C290.341 58.83 290.191 59.44 289.891 60.49C289.741 60.94 289.59 61.31 289.44 61.61C289.14 62.96 288.501 64.28 287.521 65.55C286.551 66.83 285.421 68 284.151 69.04C282.871 70.1 281.67 71.04 280.54 71.86C279.42 72.69 278.48 73.32 277.73 73.78L279.081 75.35C281.331 76.1 283.43 77.42 285.38 79.29C287.33 81.17 288.76 83.39 289.66 85.94C289.96 86.54 290.191 87.14 290.341 87.74C290.451 88.2 290.441 88.57 290.281 88.85C290.411 88.71 290.58 88.64 290.79 88.64H291.021C291.311 85.79 292.78 82.94 295.41 80.08C298.03 77.23 300.85 75.2 303.85 74C300.25 71.75 297.281 69.31 294.961 66.68Z" fill="#6C9341"/>
<path d="M410.84 47.31C409.34 46.18 407.95 44.98 406.67 43.71C405.4 42.43 404.42 41.08 403.75 39.65C403.07 38.23 402.88 36.76 403.18 35.26H400.93C401.08 36.61 400.78 38.04 400.03 39.54C399.28 41.04 398.3 42.47 397.1 43.82C395.9 45.17 394.55 46.41 393.05 47.54C391.54 48.66 390.12 49.6 388.77 50.35C390.27 51.1 391.77 52.04 393.27 53.17C394.77 54.29 396.12 55.53 397.33 56.88C398.53 58.23 399.47 59.58 400.14 60.94C400.82 62.29 401.08 63.64 400.93 64.99C401.23 64.99 401.53 65.07 401.83 65.22C402.13 65.37 402.35 65.44 402.51 65.44C402.35 64.54 402.58 63.34 403.18 61.84C403.78 60.34 404.65 58.87 405.77 57.45C406.9 56.02 408.17 54.78 409.6 53.73C411.03 52.68 412.42 52.08 413.77 51.93L415.12 50.35C413.77 49.45 412.34 48.44 410.84 47.31ZM410.84 47.31C409.34 46.18 407.95 44.98 406.67 43.71C405.4 42.43 404.42 41.08 403.75 39.65C403.07 38.23 402.88 36.76 403.18 35.26H400.93C401.08 36.61 400.78 38.04 400.03 39.54C399.28 41.04 398.3 42.47 397.1 43.82C395.9 45.17 394.55 46.41 393.05 47.54C391.54 48.66 390.12 49.6 388.77 50.35C390.27 51.1 391.77 52.04 393.27 53.17C394.77 54.29 396.12 55.53 397.33 56.88C398.53 58.23 399.47 59.58 400.14 60.94C400.82 62.29 401.08 63.64 400.93 64.99C401.23 64.99 401.53 65.07 401.83 65.22C402.13 65.37 402.35 65.44 402.51 65.44C402.35 64.54 402.58 63.34 403.18 61.84C403.78 60.34 404.65 58.87 405.77 57.45C406.9 56.02 408.17 54.78 409.6 53.73C411.03 52.68 412.42 52.08 413.77 51.93L415.12 50.35C413.77 49.45 412.34 48.44 410.84 47.31ZM537.2 182.34C534.79 181.89 532.77 181.29 531.12 180.54C521.05 176.33 510.69 170.74 500.03 163.76C489.85 157.09 479.78 149.77 469.81 141.8C469.33 141.43 468.86 141.05 468.39 140.67C466.6 139.23 464.82 137.78 463.05 136.31C454.47 129.24 446.08 121.91 437.87 114.32C427.96 105.16 418.57 96.3801 409.71 87.9601C414.37 86.3101 418.87 84.0201 423.23 81.0901C427.58 78.1701 431.45 74.87 434.83 71.18C438.21 67.51 440.91 63.53 442.94 59.25C444.96 54.97 445.98 50.65 445.98 46.3C445.98 43.9 445.6 40.97 444.85 37.51C444.1 34.06 442.86 30.64 441.13 27.26C439.41 23.88 437.19 20.73 434.49 17.8C431.79 14.88 428.41 12.66 424.35 11.16C423.6 10.86 422.59 10.52 421.31 10.15C420.04 9.77003 418.72 9.40002 417.37 9.02002C416.02 8.65002 414.82 8.34003 413.77 8.12003C412.72 7.89003 412.04 7.78003 411.74 7.78003C408.44 7.78003 406.45 7.71003 405.77 7.56003C405.1 7.41003 404.2 7.29003 403.07 7.22003C401.94 7.14003 399.92 7.14003 396.99 7.22003C394.06 7.29003 388.69 7.48003 380.88 7.78003C380.13 7.78003 379.23 7.89003 378.18 8.12003C377.13 8.34003 376.23 8.46002 375.48 8.46002H346.65L344.17 12.51C348.82 12.21 352.88 13 356.33 14.88C359.79 16.75 361.51 20.25 361.51 25.35V121.3C361.51 122.65 361.25 124.68 360.73 127.38C360.2 130.08 359.56 131.96 358.81 133.01C357.91 134.22 356.86 135.15 355.66 135.83C354.45 136.5 353.22 136.99 351.94 137.29C350.66 137.59 349.42 137.82 348.22 137.97C347.02 138.12 345.97 138.34 345.07 138.64C344.02 138.95 343.53 139.36 343.61 139.88C343.68 140.41 343.49 141.27 343.04 142.47H394.62C395.07 141.87 395.45 141.2 395.75 140.45C396.05 139.7 396.5 139.02 397.1 138.42C395.9 138.42 394.55 138.19 393.05 137.74C391.54 137.29 390.42 137.07 389.67 137.07C385.16 137.07 382.24 134.74 380.88 130.08C380.73 129.49 380.55 128.96 380.32 128.51C380.09 128.06 379.98 127.46 379.98 126.71V96.75C379.98 93.45 380.92 91.5 382.8 90.89C384.67 90.29 386.81 89.99 389.22 89.99C389.52 89.99 390.38 90.71 391.81 92.13C393.23 93.56 394.96 95.29 396.99 97.31C399.01 99.34 401.19 101.52 403.52 103.84C405.85 106.17 407.99 108.24 409.94 110.04C412.94 112.74 416.13 115.59 419.51 118.6C422.89 121.6 426.23 124.57 429.53 127.49C432.84 130.42 435.99 133.16 439 135.71C442 138.27 444.63 140.45 446.88 142.25C452.88 147.2 459.23 152.19 465.91 157.22C472.59 162.25 478.26 166.42 482.92 169.73C486.67 172.28 490.91 175.05 495.64 178.06C500.37 181.06 504.99 184.06 509.49 187.07H541.93C542.23 186.47 542.6 185.79 543.05 185.04C543.5 184.29 543.73 183.61 543.73 183.01C541.78 183.01 539.6 182.79 537.2 182.34ZM401.49 80.08C399.92 80.23 398.37 80.3801 396.88 80.5301C395.37 80.6801 393.76 80.8 392.03 80.87C390.3 80.95 388.39 80.98 386.29 80.98C385.54 80.98 384.64 80.76 383.59 80.31C382.53 79.86 381.56 79.48 380.66 79.18L381.11 21.29C381.11 21 381.26 20.47 381.56 19.72C381.86 18.97 382.24 18.22 382.69 17.47C383.14 16.72 383.59 16.04 384.04 15.44C384.49 14.84 384.79 14.46 384.94 14.31L394.62 15.44C400.63 16.04 405.81 17.73 410.16 20.51C414.52 23.29 418.08 26.59 420.86 30.42C423.64 34.25 425.67 38.3 426.94 42.58C428.22 46.86 428.86 50.95 428.86 54.86C428.86 57.26 428.41 59.92 427.51 62.85C426.61 65.78 425.22 68.4801 423.34 70.9601C421.46 73.4401 419.13 75.5401 416.36 77.2701C413.58 78.9901 410.31 79.86 406.56 79.86C404.76 79.86 403.07 79.93 401.49 80.08ZM406.67 43.71C405.4 42.43 404.42 41.08 403.75 39.65C403.07 38.23 402.88 36.76 403.18 35.26H400.93C401.08 36.61 400.78 38.04 400.03 39.54C399.28 41.04 398.3 42.47 397.1 43.82C395.9 45.17 394.55 46.41 393.05 47.54C391.54 48.66 390.12 49.6 388.77 50.35C390.27 51.1 391.77 52.04 393.27 53.17C394.77 54.29 396.12 55.53 397.33 56.88C398.53 58.23 399.47 59.58 400.14 60.94C400.82 62.29 401.08 63.64 400.93 64.99C401.23 64.99 401.53 65.07 401.83 65.22C402.13 65.37 402.35 65.44 402.51 65.44C402.35 64.54 402.58 63.34 403.18 61.84C403.78 60.34 404.65 58.87 405.77 57.45C406.9 56.02 408.17 54.78 409.6 53.73C411.03 52.68 412.42 52.08 413.77 51.93L415.12 50.35C413.77 49.45 412.34 48.44 410.84 47.31C409.34 46.18 407.95 44.98 406.67 43.71Z" fill="#EA667B"/>
<path d="M410.841 47.31C409.341 46.18 407.95 44.98 406.67 43.71C405.4 42.43 404.42 41.08 403.75 39.65C403.07 38.23 402.88 36.76 403.18 35.26H400.93C401.08 36.61 400.781 38.04 400.031 39.54C399.281 41.04 398.3 42.47 397.1 43.82C395.9 45.17 394.55 46.41 393.05 47.54C391.54 48.66 390.121 49.6 388.771 50.35C390.271 51.1 391.771 52.04 393.271 53.17C394.771 54.29 396.121 55.53 397.331 56.88C398.531 58.23 399.471 59.58 400.141 60.94C400.821 62.29 401.08 63.64 400.93 64.99C401.23 64.99 401.531 65.07 401.831 65.22C402.131 65.37 402.35 65.44 402.51 65.44C402.35 64.54 402.58 63.34 403.18 61.84C403.78 60.34 404.651 58.87 405.771 57.45C406.901 56.02 408.17 54.78 409.6 53.73C411.03 52.68 412.421 52.08 413.771 51.93L415.12 50.35C413.77 49.45 412.341 48.44 410.841 47.31ZM410.841 47.31C409.341 46.18 407.95 44.98 406.67 43.71C405.4 42.43 404.42 41.08 403.75 39.65C403.07 38.23 402.88 36.76 403.18 35.26H400.93C401.08 36.61 400.781 38.04 400.031 39.54C399.281 41.04 398.3 42.47 397.1 43.82C395.9 45.17 394.55 46.41 393.05 47.54C391.54 48.66 390.121 49.6 388.771 50.35C390.271 51.1 391.771 52.04 393.271 53.17C394.771 54.29 396.121 55.53 397.331 56.88C398.531 58.23 399.471 59.58 400.141 60.94C400.821 62.29 401.08 63.64 400.93 64.99C401.23 64.99 401.531 65.07 401.831 65.22C402.131 65.37 402.35 65.44 402.51 65.44C402.35 64.54 402.58 63.34 403.18 61.84C403.78 60.34 404.651 58.87 405.771 57.45C406.901 56.02 408.17 54.78 409.6 53.73C411.03 52.68 412.421 52.08 413.771 51.93L415.12 50.35C413.77 49.45 412.341 48.44 410.841 47.31ZM410.841 47.31C409.341 46.18 407.95 44.98 406.67 43.71C405.4 42.43 404.42 41.08 403.75 39.65C403.07 38.23 402.88 36.76 403.18 35.26H400.93C401.08 36.61 400.781 38.04 400.031 39.54C399.281 41.04 398.3 42.47 397.1 43.82C395.9 45.17 394.55 46.41 393.05 47.54C391.54 48.66 390.121 49.6 388.771 50.35C390.271 51.1 391.771 52.04 393.271 53.17C394.771 54.29 396.121 55.53 397.331 56.88C398.531 58.23 399.471 59.58 400.141 60.94C400.821 62.29 401.08 63.64 400.93 64.99C401.23 64.99 401.531 65.07 401.831 65.22C402.131 65.37 402.35 65.44 402.51 65.44C402.35 64.54 402.58 63.34 403.18 61.84C403.78 60.34 404.651 58.87 405.771 57.45C406.901 56.02 408.17 54.78 409.6 53.73C411.03 52.68 412.421 52.08 413.771 51.93L415.12 50.35C413.77 49.45 412.341 48.44 410.841 47.31ZM410.841 47.31C409.341 46.18 407.95 44.98 406.67 43.71C405.4 42.43 404.42 41.08 403.75 39.65C403.07 38.23 402.88 36.76 403.18 35.26H400.93C401.08 36.61 400.781 38.04 400.031 39.54C399.281 41.04 398.3 42.47 397.1 43.82C395.9 45.17 394.55 46.41 393.05 47.54C391.54 48.66 390.121 49.6 388.771 50.35C390.271 51.1 391.771 52.04 393.271 53.17C394.771 54.29 396.121 55.53 397.331 56.88C398.531 58.23 399.471 59.58 400.141 60.94C400.821 62.29 401.08 63.64 400.93 64.99C401.23 64.99 401.531 65.07 401.831 65.22C402.131 65.37 402.35 65.44 402.51 65.44C402.35 64.54 402.58 63.34 403.18 61.84C403.78 60.34 404.651 58.87 405.771 57.45C406.901 56.02 408.17 54.78 409.6 53.73C411.03 52.68 412.421 52.08 413.771 51.93L415.12 50.35C413.77 49.45 412.341 48.44 410.841 47.31ZM410.841 47.31C409.341 46.18 407.95 44.98 406.67 43.71C405.4 42.43 404.42 41.08 403.75 39.65C403.07 38.23 402.88 36.76 403.18 35.26H400.93C401.08 36.61 400.781 38.04 400.031 39.54C399.281 41.04 398.3 42.47 397.1 43.82C395.9 45.17 394.55 46.41 393.05 47.54C391.54 48.66 390.121 49.6 388.771 50.35C390.271 51.1 391.771 52.04 393.271 53.17C394.771 54.29 396.121 55.53 397.331 56.88C398.531 58.23 399.471 59.58 400.141 60.94C400.821 62.29 401.08 63.64 400.93 64.99C401.23 64.99 401.531 65.07 401.831 65.22C402.131 65.37 402.35 65.44 402.51 65.44C402.35 64.54 402.58 63.34 403.18 61.84C403.78 60.34 404.651 58.87 405.771 57.45C406.901 56.02 408.17 54.78 409.6 53.73C411.03 52.68 412.421 52.08 413.771 51.93L415.12 50.35C413.77 49.45 412.341 48.44 410.841 47.31Z" fill="#6C9341"/>
<path d="M503.18 136.62C502.43 136.62 501.94 136.5 501.72 136.28C501.5 136.05 501.01 135.94 500.26 135.94C498.15 135.94 496.46 135.49 495.19 134.59C493.91 133.69 492.9 132.6 492.15 131.32C491.39 130.05 490.91 128.66 490.68 127.16C490.46 125.66 490.34 124.31 490.34 123.1V25.35C490.64 24.15 490.83 22.87 490.91 21.52C490.98 20.17 491.21 18.93 491.58 17.8C491.96 16.68 492.52 15.63 493.27 14.65C494.02 13.68 495.15 12.89 496.65 12.29C498.15 11.69 499.77 11.24 501.5 10.93C503.22 10.63 504.84 10.34 506.34 10.03C506.64 9.42997 507.05 8.78996 507.58 8.11996C508.1 7.43996 508.51 6.72998 508.81 5.97998H457.01C456.71 6.57998 456.3 7.21998 455.77 7.88998C455.24 8.56998 454.98 9.05995 454.98 9.35995C459.79 9.95995 463.8 11.12 467.03 12.85C470.26 14.58 471.88 17.99 471.88 23.1V121.75C471.27 123.1 470.67 124.98 470.07 127.38C469.47 129.79 468.87 131.59 468.27 132.79C467.82 133.69 466.96 134.48 465.68 135.15C464.82 135.61 463.94 136 463.05 136.31C462.62 136.47 462.18 136.61 461.74 136.73C460.39 137.11 459.07 137.4 457.8 137.63C456.52 137.85 455.51 138.04 454.76 138.19C454.16 138.5 453.67 139.02 453.29 139.77C452.92 140.52 452.58 141.27 452.28 142.02L469.81 141.8L505.21 141.35C505.51 140.6 505.81 139.88 506.11 139.21C506.41 138.53 506.94 137.89 507.69 137.29C507.09 137.29 506.37 137.18 505.55 136.95C504.72 136.73 503.93 136.62 503.18 136.62Z" fill="#EA667B"/>
<path d="M166.2 45.37C160.72 43.53 155.84 48.04 157.39 51.39C158.93 54.74 169.68 51.39 168.5 50.27L168.59 45.76L166.2 45.37Z" fill="#AD2352" stroke="#AD2352" stroke-miterlimit="10"/>
<path d="M138.91 69.68C138.91 69.68 126.91 74.25 130.89 78.66C134.86 83.07 144.2 81.53 149.46 88.09C154.72 94.65 163.3 89.57 165.54 86.71" fill="#BF1F56"/>
<path d="M138.91 69.68C138.91 69.68 126.91 74.25 130.89 78.66C134.86 83.07 144.2 81.53 149.46 88.09C154.72 94.65 163.3 89.57 165.54 86.71" stroke="#BF1F56" stroke-miterlimit="10"/>
<path d="M179.691 98.98C179.691 98.98 178.671 91.24 181.991 87.42L183.021 89.92C183.021 89.92 184.131 83.72 187.661 83.25L188.401 86.78C188.401 86.78 190.671 82.27 193.061 81.67L192.611 84.79C192.611 84.79 196.751 83.4 198.741 80.92C198.741 80.92 197.501 86.98 195.481 87.91C195.481 87.91 197.501 89.4 199.971 88.68C199.971 88.68 195.011 92.88 192.351 91.73C192.351 91.73 194.271 93.87 196.601 93.99C196.601 93.99 192.471 97.04 189.321 95.99C189.321 95.99 190.471 96.98 192.361 97.79C192.381 97.78 186.301 104.03 179.691 98.98Z" fill="#7AA850" stroke="#7AA850" stroke-width="2" stroke-miterlimit="10" stroke-linecap="round" stroke-linejoin="round"/>
<path d="M176.49 103.37C176.49 103.37 186.05 89.68 192.2 87.97" stroke="#6C9341" stroke-width="2" stroke-miterlimit="10" stroke-linecap="round" stroke-linejoin="round"/>
<path d="M172.281 85.19C172.281 85.19 179.381 100.65 173.321 113.83C167.261 127.01 158.341 136.46 140.021 131.01" stroke="#6C9341" stroke-width="2" stroke-miterlimit="10" stroke-linecap="round" stroke-linejoin="round"/>
<path d="M220.051 48.42C217.961 40.13 214.411 32.47 209.421 25.47C204.421 18.46 197.821 12.62 189.601 7.94001C181.381 3.27001 171.151 0.930003 158.911 0.930003C150.851 0.930003 149.861 0.809997 142.631 2.83C135.961 4.7 130.631 9.19002 125.711 13.7C120.801 18.21 121.531 19.18 118.071 24.9C114.611 30.62 111.751 36.42 109.491 42.3C107.231 48.18 105.581 53.94 104.541 59.58C103.491 65.22 102.971 70.13 102.971 74.32C102.971 80.61 103.741 87.54 105.271 95.1C106.801 102.67 111.221 110.27 117.061 115.68C125.051 123.08 133.131 133.23 149.841 133.56C148.871 133.21 147.911 132.83 146.961 132.42C144.281 131.26 141.711 129.87 139.241 128.25C128.201 121 120.351 108.43 115.681 90.55C114.871 87.49 114.191 83.99 113.631 80.04C113.061 76.1 112.781 72.35 112.781 68.81C112.781 64.3 113.141 59.91 113.861 55.64C114.581 51.37 115.111 47.06 115.431 42.71C115.751 38.04 117.281 33.85 120.021 30.14C122.761 26.44 126.061 23.26 129.931 20.59C133.801 17.93 137.911 15.88 142.261 14.43C146.611 12.98 150.471 12.26 153.861 12.26C159.181 12.26 164.691 13.22 170.411 15.16C176.131 17.09 181.491 19.71 186.481 23.01C191.471 26.32 195.861 30.18 199.651 34.61C203.441 39.05 206.131 43.84 207.751 48.99C208.881 52.7 210.171 56.28 211.621 59.74C213.071 63.21 213.791 67.03 213.791 71.22C213.791 77.34 213.431 83.99 212.711 91.16C211.991 98.33 210.411 105.1 208.001 111.46C205.901 117 200.031 128.18 195.521 134.03C195.521 134.03 185.751 145.29 171.541 146.71C167.371 147.13 163.181 146.17 159.581 144.03C159.531 144 159.501 143.99 159.501 143.99L159.251 144.58C161.371 146.31 165.301 147.44 165.301 147.44C165.301 147.44 175.111 150.35 186.071 143.74L186.051 143.76C186.051 143.76 186.151 143.69 186.351 143.57C187.211 143.04 188.081 142.45 188.951 141.79C192.861 139 199.891 133.47 204.701 126.83C204.731 126.79 204.761 126.75 204.791 126.71C205.051 126.39 205.311 126.09 205.561 125.76C209.911 120.2 213.051 114.61 214.981 108.97C216.751 103.81 218.041 100.19 218.851 98.1C219.661 96.01 220.261 94.11 220.671 92.42C221.071 90.73 221.431 88.48 221.751 85.66C222.071 82.84 222.561 78.21 223.201 71.76C223.191 64.49 222.141 56.72 220.051 48.42Z" fill="#6C9341"/>
<path d="M0.600586 107.05C0.600586 107.05 4.09057 104.35 5.96057 104.01C7.83057 103.67 14.3006 99.33 14.3006 99.33L22.3306 96.9" fill="#EA667B"/>
<path d="M174.411 60.81C172.011 56.9 172.291 54.76 172.291 54.76L172.601 51.94L168.501 49.53C168.501 49.53 160.851 55.6 151.701 52.28C142.931 49.1 144.341 54.41 147.741 61.19C147.891 61.49 148.041 61.79 148.201 62.09L148.361 62.12L151.031 66.16L168.591 76.12L176.781 72.68V67.87C176.771 67.87 176.801 64.71 174.411 60.81Z" fill="#E56574" stroke="#E56574" stroke-width="1.881" stroke-miterlimit="10" stroke-linecap="round" stroke-linejoin="round"/>
<path d="M159.061 67.9699C159.061 67.9699 160.451 62.95 164.841 59.9C169.241 56.85 170.041 49.0299 167.291 46.8599C164.551 44.6899 168.981 42.18 170.591 44.53C171.701 46.15 174.241 48.86 172.941 52.76C171.631 56.66 170.861 59.97 165.011 62.93C159.161 65.89 159.381 67.9199 159.381 67.9199" fill="#F29D95"/>
<path d="M159.061 67.9699C159.061 67.9699 160.451 62.95 164.841 59.9C169.241 56.85 170.041 49.0299 167.291 46.8599C164.551 44.6899 168.981 42.18 170.591 44.53C171.701 46.15 174.241 48.86 172.941 52.76C171.631 56.66 170.861 59.97 165.011 62.93C159.161 65.89 159.381 67.9199 159.381 67.9199" stroke="#F29D95" stroke-miterlimit="10"/>
<path d="M178.47 76.89C177.93 74.49 175.69 72.83 173.22 72.81C172.66 72.81 172.01 72.85 171.29 72.96C166.33 73.74 152.06 63.54 152.06 63.54C152.06 63.54 142.94 58.76 133.88 62.83C124.81 66.9 146.33 69.23 154.05 81.23C160.93 91.92 180.32 85.05 178.47 76.89Z" fill="#E23D61" stroke="#E23D61" stroke-miterlimit="10"/>
</svg>
